<svg width="100%" viewBox="0 0 680 500" role="img" style="font-family: monospace; overflow: visible;" xmlns="http://www.w3.org/2000/svg"><defs><mask id="imagine-text-gaps-iix6rj" maskUnits="userSpaceOnUse"><rect x="0" y="0" width="680" height="500" fill="white"/><rect x="36" y="5.333333492279053" width="385.16668701171875" height="20" fill="black" rx="2"/><rect x="48.880210876464844" y="27" width="38.23958396911621" height="16.666666984558105" fill="black" rx="2"/><rect x="108.92708587646484" y="27" width="26.14583396911621" height="16.666666984558105" fill="black" rx="2"/><rect x="152.9010467529297" y="27" width="32.19791793823242" height="16.666666984558105" fill="black" rx="2"/><rect x="80" y="8.666666984558105" width="27.80208396911621" height="18.666666984558105" fill="black" rx="2"/><rect x="80" y="24" width="86.625" height="16.666666984558105" fill="black" rx="2"/><rect x="80" y="36" width="50.34375" height="16.666666984558105" fill="black" rx="2"/><rect x="221.8072967529297" y="54" width="56.38541793823242" height="16.666666984558105" fill="black" rx="2"/><rect x="377.80731201171875" y="54" width="56.38541793823242" height="16.666666984558105" fill="black" rx="2"/><rect x="533.8073120117188" y="54" width="56.38541793823242" height="16.666666984558105" fill="black" rx="2"/><rect x="80" y="8.666666984558105" width="40.989585876464844" height="18.666666984558105" fill="black" rx="2"/><rect x="80" y="24" width="86.625" height="16.666666984558105" fill="black" rx="2"/><rect x="80" y="36" width="50.34375" height="16.666666984558105" fill="black" rx="2"/><rect x="221.8072967529297" y="54" width="56.38541793823242" height="16.666666984558105" fill="black" rx="2"/><rect x="377.80731201171875" y="54" width="56.38541793823242" height="16.666666984558105" fill="black" rx="2"/><rect x="533.8073120117188" y="54" width="56.38541793823242" height="16.666666984558105" fill="black" rx="2"/><rect x="80" y="8.666666984558105" width="34.45963668823242" height="18.666666984558105" fill="black" rx="2"/><rect x="80" y="24" width="86.625" height="16.666666984558105" fill="black" rx="2"/><rect x="80" y="36" width="50.34375" height="16.666666984558105" fill="black" rx="2"/><rect x="221.8072967529297" y="54" width="56.38541793823242" height="16.666666984558105" fill="black" rx="2"/><rect x="377.80731201171875" y="54" width="56.38541793823242" height="16.666666984558105" fill="black" rx="2"/><rect x="533.8073120117188" y="54" width="56.38541793823242" height="16.666666984558105" fill="black" rx="2"/><rect x="80" y="8.666666984558105" width="47.65494918823242" height="18.666666984558105" fill="black" rx="2"/><rect x="80" y="24" width="98.71875" height="16.666666984558105" fill="black" rx="2"/><rect x="80" y="36" width="50.34375" height="16.666666984558105" fill="black" rx="2"/><rect x="221.8072967529297" y="54" width="56.38541793823242" height="16.666666984558105" fill="black" rx="2"/><rect x="377.80731201171875" y="54" width="56.38541793823242" height="16.666666984558105" fill="black" rx="2"/><rect x="533.8073120117188" y="54" width="56.38541793823242" height="16.666666984558105" fill="black" rx="2"/></mask></defs>
  <title style="fill:rgb(0, 0, 0);stroke:none;color:rgb(0, 0, 0);stroke-width:1px;stroke-linecap:butt;stroke-linejoin:miter;opacity:1;font-family:monospace;font-size:13px;font-weight:400;text-anchor:start;dominant-baseline:auto">WS2812B 24-bit color encoding examples</title>
  <desc style="fill:rgb(0, 0, 0);stroke:none;color:rgb(0, 0, 0);stroke-width:1px;stroke-linecap:butt;stroke-linejoin:miter;opacity:1;font-family:monospace;font-size:13px;font-weight:400;text-anchor:start;dominant-baseline:auto">Four colors shown as 24-bit GRB waveforms with pulse widths representing 1 and 0 bits.</desc>

  <text x="40" y="20" font-size="14" font-weight="500" fill="var(--color-text-primary)" style="fill:rgb(20, 20, 19);stroke:none;color:rgb(0, 0, 0);stroke-width:1px;stroke-linecap:butt;stroke-linejoin:miter;opacity:1;font-family:monospace;font-size:14px;font-weight:500;text-anchor:start;dominant-baseline:auto">24-bit color encoding (GRB byte order, MSB first)</text>
  <rect x="40" y="28" width="56" height="15" rx="3" fill="#4caf50" opacity="0.2" style="fill:rgb(76, 175, 80);stroke:none;color:rgb(0, 0, 0);stroke-width:1px;stroke-linecap:butt;stroke-linejoin:miter;opacity:0.2;font-family:monospace;font-size:13px;font-weight:400;text-anchor:start;dominant-baseline:auto"/>
  <text x="68" y="39" text-anchor="middle" font-size="11" fill="#388e3c" font-weight="500" style="fill:rgb(56, 142, 60);stroke:none;color:rgb(0, 0, 0);stroke-width:1px;stroke-linecap:butt;stroke-linejoin:miter;opacity:1;font-family:monospace;font-size:11px;font-weight:500;text-anchor:middle;dominant-baseline:auto">Green</text>
  <rect x="102" y="28" width="40" height="15" rx="3" fill="#e53935" opacity="0.2" style="fill:rgb(229, 57, 53);stroke:none;color:rgb(0, 0, 0);stroke-width:1px;stroke-linecap:butt;stroke-linejoin:miter;opacity:0.2;font-family:monospace;font-size:13px;font-weight:400;text-anchor:start;dominant-baseline:auto"/>
  <text x="122" y="39" text-anchor="middle" font-size="11" fill="#c62828" font-weight="500" style="fill:rgb(198, 40, 40);stroke:none;color:rgb(0, 0, 0);stroke-width:1px;stroke-linecap:butt;stroke-linejoin:miter;opacity:1;font-family:monospace;font-size:11px;font-weight:500;text-anchor:middle;dominant-baseline:auto">Red</text>
  <rect x="148" y="28" width="42" height="15" rx="3" fill="#2979ff" opacity="0.2" style="fill:rgb(41, 121, 255);stroke:none;color:rgb(0, 0, 0);stroke-width:1px;stroke-linecap:butt;stroke-linejoin:miter;opacity:0.2;font-family:monospace;font-size:13px;font-weight:400;text-anchor:start;dominant-baseline:auto"/>
  <text x="169" y="39" text-anchor="middle" font-size="11" fill="#1565c0" font-weight="500" style="fill:rgb(21, 101, 192);stroke:none;color:rgb(0, 0, 0);stroke-width:1px;stroke-linecap:butt;stroke-linejoin:miter;opacity:1;font-family:monospace;font-size:11px;font-weight:500;text-anchor:middle;dominant-baseline:auto">Blue</text>

  <!-- ROW 1: Red — backgrounds first, then baseline, then ALL waveforms on top -->
  <g transform="translate(0, 56)" style="fill:rgb(0, 0, 0);stroke:none;color:rgb(0, 0, 0);stroke-width:1px;stroke-linecap:butt;stroke-linejoin:miter;opacity:1;font-family:monospace;font-size:13px;font-weight:400;text-anchor:start;dominant-baseline:auto">
    <rect x="40" y="12" width="36" height="36" rx="4" fill="rgb(255,0,0)" stroke="#999" stroke-width="0.5" style="fill:rgb(255, 0, 0);stroke:rgb(153, 153, 153);color:rgb(0, 0, 0);stroke-width:0.5px;stroke-linecap:butt;stroke-linejoin:miter;opacity:1;font-family:monospace;font-size:13px;font-weight:400;text-anchor:start;dominant-baseline:auto"/>
    <text x="84" y="22" font-size="12" font-weight="500" fill="var(--color-text-primary)" style="fill:rgb(20, 20, 19);stroke:none;color:rgb(0, 0, 0);stroke-width:1px;stroke-linecap:butt;stroke-linejoin:miter;opacity:1;font-family:monospace;font-size:12px;font-weight:500;text-anchor:start;dominant-baseline:auto">Red</text>
    <text x="84" y="36" font-size="11" fill="var(--color-text-secondary)" style="fill:rgb(61, 61, 58);stroke:none;color:rgb(0, 0, 0);stroke-width:1px;stroke-linecap:butt;stroke-linejoin:miter;opacity:1;font-family:monospace;font-size:11px;font-weight:400;text-anchor:start;dominant-baseline:auto">R:255 G:0 B:0</text>
    <text x="84" y="48" font-size="11" fill="var(--color-text-tertiary)" style="fill:rgb(115, 114, 108);stroke:none;color:rgb(0, 0, 0);stroke-width:1px;stroke-linecap:butt;stroke-linejoin:miter;opacity:1;font-family:monospace;font-size:11px;font-weight:400;text-anchor:start;dominant-baseline:auto">#FF0000</text>
    <rect x="172" y="4" width="156" height="48" fill="#4caf50" opacity="0.04" style="fill:rgb(76, 175, 80);stroke:none;color:rgb(0, 0, 0);stroke-width:1px;stroke-linecap:butt;stroke-linejoin:miter;opacity:0.04;font-family:monospace;font-size:13px;font-weight:400;text-anchor:start;dominant-baseline:auto"/>
    <rect x="328" y="4" width="156" height="48" fill="#e53935" opacity="0.04" style="fill:rgb(229, 57, 53);stroke:none;color:rgb(0, 0, 0);stroke-width:1px;stroke-linecap:butt;stroke-linejoin:miter;opacity:0.04;font-family:monospace;font-size:13px;font-weight:400;text-anchor:start;dominant-baseline:auto"/>
    <rect x="484" y="4" width="156" height="48" fill="#2979ff" opacity="0.04" style="fill:rgb(41, 121, 255);stroke:none;color:rgb(0, 0, 0);stroke-width:1px;stroke-linecap:butt;stroke-linejoin:miter;opacity:0.04;font-family:monospace;font-size:13px;font-weight:400;text-anchor:start;dominant-baseline:auto"/>
    <line x1="172" y1="48" x2="640" y2="48" stroke="var(--color-border-tertiary)" stroke-width="0.5" style="fill:rgb(0, 0, 0);stroke:rgba(31, 30, 29, 0.15);color:rgb(0, 0, 0);stroke-width:0.5px;stroke-linecap:butt;stroke-linejoin:miter;opacity:1;font-family:monospace;font-size:13px;font-weight:400;text-anchor:start;dominant-baseline:auto"/>
    <path d="M172.0,48 L172.0,8 L178.2,8 L178.2,48 L191.5,48 L191.5,8 L197.7,8 L197.7,48 L211.0,48 L211.0,8 L217.2,8 L217.2,48 L230.5,48 L230.5,8 L236.7,8 L236.7,48 L250.0,48 L250.0,8 L256.2,8 L256.2,48 L269.5,48 L269.5,8 L275.7,8 L275.7,48 L289.0,48 L289.0,8 L295.2,8 L295.2,48 L308.5,48 L308.5,8 L314.7,8 L314.7,48 L328.0,48" fill="none" stroke="#4caf50" stroke-width="1.5" stroke-linejoin="round" mask="url(#imagine-text-gaps-iix6rj)" style="fill:none;stroke:rgb(76, 175, 80);color:rgb(0, 0, 0);stroke-width:1.5px;stroke-linecap:butt;stroke-linejoin:round;opacity:1;font-family:monospace;font-size:13px;font-weight:400;text-anchor:start;dominant-baseline:auto"/>
    <path d="M328.0,48 L328.0,8 L340.5,8 L340.5,48 L347.5,48 L347.5,8 L360.0,8 L360.0,48 L367.0,48 L367.0,8 L379.5,8 L379.5,48 L386.5,48 L386.5,8 L399.0,8 L399.0,48 L406.0,48 L406.0,8 L418.5,8 L418.5,48 L425.5,48 L425.5,8 L438.0,8 L438.0,48 L445.0,48 L445.0,8 L457.5,8 L457.5,48 L464.5,48 L464.5,8 L477.0,8 L477.0,48 L484.0,48" fill="none" stroke="#e53935" stroke-width="1.5" stroke-linejoin="round" mask="url(#imagine-text-gaps-iix6rj)" style="fill:none;stroke:rgb(229, 57, 53);color:rgb(0, 0, 0);stroke-width:1.5px;stroke-linecap:butt;stroke-linejoin:round;opacity:1;font-family:monospace;font-size:13px;font-weight:400;text-anchor:start;dominant-baseline:auto"/>
    <path d="M484.0,48 L484.0,8 L490.2,8 L490.2,48 L503.5,48 L503.5,8 L509.7,8 L509.7,48 L523.0,48 L523.0,8 L529.2,8 L529.2,48 L542.5,48 L542.5,8 L548.7,8 L548.7,48 L562.0,48 L562.0,8 L568.2,8 L568.2,48 L581.5,48 L581.5,8 L587.7,8 L587.7,48 L601.0,48 L601.0,8 L607.2,8 L607.2,48 L620.5,48 L620.5,8 L626.7,8 L626.7,48 L640.0,48" fill="none" stroke="#2979ff" stroke-width="1.5" stroke-linejoin="round" style="fill:none;stroke:rgb(41, 121, 255);color:rgb(0, 0, 0);stroke-width:1.5px;stroke-linecap:butt;stroke-linejoin:round;opacity:1;font-family:monospace;font-size:13px;font-weight:400;text-anchor:start;dominant-baseline:auto"/>
    <text x="250" y="66" text-anchor="middle" font-size="11" fill="#388e3c" style="fill:rgb(56, 142, 60);stroke:none;color:rgb(0, 0, 0);stroke-width:1px;stroke-linecap:butt;stroke-linejoin:miter;opacity:1;font-family:monospace;font-size:11px;font-weight:400;text-anchor:middle;dominant-baseline:auto">00000000</text>
    <text x="406" y="66" text-anchor="middle" font-size="11" fill="#c62828" style="fill:rgb(198, 40, 40);stroke:none;color:rgb(0, 0, 0);stroke-width:1px;stroke-linecap:butt;stroke-linejoin:miter;opacity:1;font-family:monospace;font-size:11px;font-weight:400;text-anchor:middle;dominant-baseline:auto">11111111</text>
    <text x="562" y="66" text-anchor="middle" font-size="11" fill="#1565c0" style="fill:rgb(21, 101, 192);stroke:none;color:rgb(0, 0, 0);stroke-width:1px;stroke-linecap:butt;stroke-linejoin:miter;opacity:1;font-family:monospace;font-size:11px;font-weight:400;text-anchor:middle;dominant-baseline:auto">00000000</text>
  </g>

  <!-- ROW 2: Green -->
  <g transform="translate(0, 166)" style="fill:rgb(0, 0, 0);stroke:none;color:rgb(0, 0, 0);stroke-width:1px;stroke-linecap:butt;stroke-linejoin:miter;opacity:1;font-family:monospace;font-size:13px;font-weight:400;text-anchor:start;dominant-baseline:auto">
    <line x1="40" y1="-8" x2="640" y2="-8" stroke="var(--color-border-tertiary)" stroke-width="0.5" stroke-dasharray="2 2" style="fill:rgb(0, 0, 0);stroke:rgba(31, 30, 29, 0.15);color:rgb(0, 0, 0);stroke-width:0.5px;stroke-dasharray:2px, 2px;stroke-linecap:butt;stroke-linejoin:miter;opacity:1;font-family:monospace;font-size:13px;font-weight:400;text-anchor:start;dominant-baseline:auto"/>
    <rect x="40" y="12" width="36" height="36" rx="4" fill="rgb(0,255,0)" stroke="#999" stroke-width="0.5" style="fill:rgb(0, 255, 0);stroke:rgb(153, 153, 153);color:rgb(0, 0, 0);stroke-width:0.5px;stroke-linecap:butt;stroke-linejoin:miter;opacity:1;font-family:monospace;font-size:13px;font-weight:400;text-anchor:start;dominant-baseline:auto"/>
    <text x="84" y="22" font-size="12" font-weight="500" fill="var(--color-text-primary)" style="fill:rgb(20, 20, 19);stroke:none;color:rgb(0, 0, 0);stroke-width:1px;stroke-linecap:butt;stroke-linejoin:miter;opacity:1;font-family:monospace;font-size:12px;font-weight:500;text-anchor:start;dominant-baseline:auto">Green</text>
    <text x="84" y="36" font-size="11" fill="var(--color-text-secondary)" style="fill:rgb(61, 61, 58);stroke:none;color:rgb(0, 0, 0);stroke-width:1px;stroke-linecap:butt;stroke-linejoin:miter;opacity:1;font-family:monospace;font-size:11px;font-weight:400;text-anchor:start;dominant-baseline:auto">R:0 G:255 B:0</text>
    <text x="84" y="48" font-size="11" fill="var(--color-text-tertiary)" style="fill:rgb(115, 114, 108);stroke:none;color:rgb(0, 0, 0);stroke-width:1px;stroke-linecap:butt;stroke-linejoin:miter;opacity:1;font-family:monospace;font-size:11px;font-weight:400;text-anchor:start;dominant-baseline:auto">#00FF00</text>
    <rect x="172" y="4" width="156" height="48" fill="#4caf50" opacity="0.04" style="fill:rgb(76, 175, 80);stroke:none;color:rgb(0, 0, 0);stroke-width:1px;stroke-linecap:butt;stroke-linejoin:miter;opacity:0.04;font-family:monospace;font-size:13px;font-weight:400;text-anchor:start;dominant-baseline:auto"/>
    <rect x="328" y="4" width="156" height="48" fill="#e53935" opacity="0.04" style="fill:rgb(229, 57, 53);stroke:none;color:rgb(0, 0, 0);stroke-width:1px;stroke-linecap:butt;stroke-linejoin:miter;opacity:0.04;font-family:monospace;font-size:13px;font-weight:400;text-anchor:start;dominant-baseline:auto"/>
    <rect x="484" y="4" width="156" height="48" fill="#2979ff" opacity="0.04" style="fill:rgb(41, 121, 255);stroke:none;color:rgb(0, 0, 0);stroke-width:1px;stroke-linecap:butt;stroke-linejoin:miter;opacity:0.04;font-family:monospace;font-size:13px;font-weight:400;text-anchor:start;dominant-baseline:auto"/>
    <line x1="172" y1="48" x2="640" y2="48" stroke="var(--color-border-tertiary)" stroke-width="0.5" style="fill:rgb(0, 0, 0);stroke:rgba(31, 30, 29, 0.15);color:rgb(0, 0, 0);stroke-width:0.5px;stroke-linecap:butt;stroke-linejoin:miter;opacity:1;font-family:monospace;font-size:13px;font-weight:400;text-anchor:start;dominant-baseline:auto"/>
    <path d="M172.0,48 L172.0,8 L184.5,8 L184.5,48 L191.5,48 L191.5,8 L204.0,8 L204.0,48 L211.0,48 L211.0,8 L223.5,8 L223.5,48 L230.5,48 L230.5,8 L243.0,8 L243.0,48 L250.0,48 L250.0,8 L262.5,8 L262.5,48 L269.5,48 L269.5,8 L282.0,8 L282.0,48 L289.0,48 L289.0,8 L301.5,8 L301.5,48 L308.5,48 L308.5,8 L321.0,8 L321.0,48 L328.0,48" fill="none" stroke="#4caf50" stroke-width="1.5" stroke-linejoin="round" mask="url(#imagine-text-gaps-iix6rj)" style="fill:none;stroke:rgb(76, 175, 80);color:rgb(0, 0, 0);stroke-width:1.5px;stroke-linecap:butt;stroke-linejoin:round;opacity:1;font-family:monospace;font-size:13px;font-weight:400;text-anchor:start;dominant-baseline:auto"/>
    <path d="M328.0,48 L328.0,8 L334.2,8 L334.2,48 L347.5,48 L347.5,8 L353.7,8 L353.7,48 L367.0,48 L367.0,8 L373.2,8 L373.2,48 L386.5,48 L386.5,8 L392.7,8 L392.7,48 L406.0,48 L406.0,8 L412.2,8 L412.2,48 L425.5,48 L425.5,8 L431.7,8 L431.7,48 L445.0,48 L445.0,8 L451.2,8 L451.2,48 L464.5,48 L464.5,8 L470.7,8 L470.7,48 L484.0,48" fill="none" stroke="#e53935" stroke-width="1.5" stroke-linejoin="round" mask="url(#imagine-text-gaps-iix6rj)" style="fill:none;stroke:rgb(229, 57, 53);color:rgb(0, 0, 0);stroke-width:1.5px;stroke-linecap:butt;stroke-linejoin:round;opacity:1;font-family:monospace;font-size:13px;font-weight:400;text-anchor:start;dominant-baseline:auto"/>
    <path d="M484.0,48 L484.0,8 L490.2,8 L490.2,48 L503.5,48 L503.5,8 L509.7,8 L509.7,48 L523.0,48 L523.0,8 L529.2,8 L529.2,48 L542.5,48 L542.5,8 L548.7,8 L548.7,48 L562.0,48 L562.0,8 L568.2,8 L568.2,48 L581.5,48 L581.5,8 L587.7,8 L587.7,48 L601.0,48 L601.0,8 L607.2,8 L607.2,48 L620.5,48 L620.5,8 L626.7,8 L626.7,48 L640.0,48" fill="none" stroke="#2979ff" stroke-width="1.5" stroke-linejoin="round" style="fill:none;stroke:rgb(41, 121, 255);color:rgb(0, 0, 0);stroke-width:1.5px;stroke-linecap:butt;stroke-linejoin:round;opacity:1;font-family:monospace;font-size:13px;font-weight:400;text-anchor:start;dominant-baseline:auto"/>
    <text x="250" y="66" text-anchor="middle" font-size="11" fill="#388e3c" style="fill:rgb(56, 142, 60);stroke:none;color:rgb(0, 0, 0);stroke-width:1px;stroke-linecap:butt;stroke-linejoin:miter;opacity:1;font-family:monospace;font-size:11px;font-weight:400;text-anchor:middle;dominant-baseline:auto">11111111</text>
    <text x="406" y="66" text-anchor="middle" font-size="11" fill="#c62828" style="fill:rgb(198, 40, 40);stroke:none;color:rgb(0, 0, 0);stroke-width:1px;stroke-linecap:butt;stroke-linejoin:miter;opacity:1;font-family:monospace;font-size:11px;font-weight:400;text-anchor:middle;dominant-baseline:auto">00000000</text>
    <text x="562" y="66" text-anchor="middle" font-size="11" fill="#1565c0" style="fill:rgb(21, 101, 192);stroke:none;color:rgb(0, 0, 0);stroke-width:1px;stroke-linecap:butt;stroke-linejoin:miter;opacity:1;font-family:monospace;font-size:11px;font-weight:400;text-anchor:middle;dominant-baseline:auto">00000000</text>
  </g>

  <!-- ROW 3: Blue -->
  <g transform="translate(0, 276)" style="fill:rgb(0, 0, 0);stroke:none;color:rgb(0, 0, 0);stroke-width:1px;stroke-linecap:butt;stroke-linejoin:miter;opacity:1;font-family:monospace;font-size:13px;font-weight:400;text-anchor:start;dominant-baseline:auto">
    <line x1="40" y1="-8" x2="640" y2="-8" stroke="var(--color-border-tertiary)" stroke-width="0.5" stroke-dasharray="2 2" style="fill:rgb(0, 0, 0);stroke:rgba(31, 30, 29, 0.15);color:rgb(0, 0, 0);stroke-width:0.5px;stroke-dasharray:2px, 2px;stroke-linecap:butt;stroke-linejoin:miter;opacity:1;font-family:monospace;font-size:13px;font-weight:400;text-anchor:start;dominant-baseline:auto"/>
    <rect x="40" y="12" width="36" height="36" rx="4" fill="rgb(0,0,255)" stroke="#999" stroke-width="0.5" style="fill:rgb(0, 0, 255);stroke:rgb(153, 153, 153);color:rgb(0, 0, 0);stroke-width:0.5px;stroke-linecap:butt;stroke-linejoin:miter;opacity:1;font-family:monospace;font-size:13px;font-weight:400;text-anchor:start;dominant-baseline:auto"/>
    <text x="84" y="22" font-size="12" font-weight="500" fill="var(--color-text-primary)" style="fill:rgb(20, 20, 19);stroke:none;color:rgb(0, 0, 0);stroke-width:1px;stroke-linecap:butt;stroke-linejoin:miter;opacity:1;font-family:monospace;font-size:12px;font-weight:500;text-anchor:start;dominant-baseline:auto">Blue</text>
    <text x="84" y="36" font-size="11" fill="var(--color-text-secondary)" style="fill:rgb(61, 61, 58);stroke:none;color:rgb(0, 0, 0);stroke-width:1px;stroke-linecap:butt;stroke-linejoin:miter;opacity:1;font-family:monospace;font-size:11px;font-weight:400;text-anchor:start;dominant-baseline:auto">R:0 G:0 B:255</text>
    <text x="84" y="48" font-size="11" fill="var(--color-text-tertiary)" style="fill:rgb(115, 114, 108);stroke:none;color:rgb(0, 0, 0);stroke-width:1px;stroke-linecap:butt;stroke-linejoin:miter;opacity:1;font-family:monospace;font-size:11px;font-weight:400;text-anchor:start;dominant-baseline:auto">#0000FF</text>
    <rect x="172" y="4" width="156" height="48" fill="#4caf50" opacity="0.04" style="fill:rgb(76, 175, 80);stroke:none;color:rgb(0, 0, 0);stroke-width:1px;stroke-linecap:butt;stroke-linejoin:miter;opacity:0.04;font-family:monospace;font-size:13px;font-weight:400;text-anchor:start;dominant-baseline:auto"/>
    <rect x="328" y="4" width="156" height="48" fill="#e53935" opacity="0.04" style="fill:rgb(229, 57, 53);stroke:none;color:rgb(0, 0, 0);stroke-width:1px;stroke-linecap:butt;stroke-linejoin:miter;opacity:0.04;font-family:monospace;font-size:13px;font-weight:400;text-anchor:start;dominant-baseline:auto"/>
    <rect x="484" y="4" width="156" height="48" fill="#2979ff" opacity="0.04" style="fill:rgb(41, 121, 255);stroke:none;color:rgb(0, 0, 0);stroke-width:1px;stroke-linecap:butt;stroke-linejoin:miter;opacity:0.04;font-family:monospace;font-size:13px;font-weight:400;text-anchor:start;dominant-baseline:auto"/>
    <line x1="172" y1="48" x2="640" y2="48" stroke="var(--color-border-tertiary)" stroke-width="0.5" style="fill:rgb(0, 0, 0);stroke:rgba(31, 30, 29, 0.15);color:rgb(0, 0, 0);stroke-width:0.5px;stroke-linecap:butt;stroke-linejoin:miter;opacity:1;font-family:monospace;font-size:13px;font-weight:400;text-anchor:start;dominant-baseline:auto"/>
    <path d="M172.0,48 L172.0,8 L178.2,8 L178.2,48 L191.5,48 L191.5,8 L197.7,8 L197.7,48 L211.0,48 L211.0,8 L217.2,8 L217.2,48 L230.5,48 L230.5,8 L236.7,8 L236.7,48 L250.0,48 L250.0,8 L256.2,8 L256.2,48 L269.5,48 L269.5,8 L275.7,8 L275.7,48 L289.0,48 L289.0,8 L295.2,8 L295.2,48 L308.5,48 L308.5,8 L314.7,8 L314.7,48 L328.0,48" fill="none" stroke="#4caf50" stroke-width="1.5" stroke-linejoin="round" mask="url(#imagine-text-gaps-iix6rj)" style="fill:none;stroke:rgb(76, 175, 80);color:rgb(0, 0, 0);stroke-width:1.5px;stroke-linecap:butt;stroke-linejoin:round;opacity:1;font-family:monospace;font-size:13px;font-weight:400;text-anchor:start;dominant-baseline:auto"/>
    <path d="M328.0,48 L328.0,8 L334.2,8 L334.2,48 L347.5,48 L347.5,8 L353.7,8 L353.7,48 L367.0,48 L367.0,8 L373.2,8 L373.2,48 L386.5,48 L386.5,8 L392.7,8 L392.7,48 L406.0,48 L406.0,8 L412.2,8 L412.2,48 L425.5,48 L425.5,8 L431.7,8 L431.7,48 L445.0,48 L445.0,8 L451.2,8 L451.2,48 L464.5,48 L464.5,8 L470.7,8 L470.7,48 L484.0,48" fill="none" stroke="#e53935" stroke-width="1.5" stroke-linejoin="round" mask="url(#imagine-text-gaps-iix6rj)" style="fill:none;stroke:rgb(229, 57, 53);color:rgb(0, 0, 0);stroke-width:1.5px;stroke-linecap:butt;stroke-linejoin:round;opacity:1;font-family:monospace;font-size:13px;font-weight:400;text-anchor:start;dominant-baseline:auto"/>
    <path d="M484.0,48 L484.0,8 L496.5,8 L496.5,48 L503.5,48 L503.5,8 L516.0,8 L516.0,48 L523.0,48 L523.0,8 L535.5,8 L535.5,48 L542.5,48 L542.5,8 L555.0,8 L555.0,48 L562.0,48 L562.0,8 L574.5,8 L574.5,48 L581.5,48 L581.5,8 L594.0,8 L594.0,48 L601.0,48 L601.0,8 L613.5,8 L613.5,48 L620.5,48 L620.5,8 L633.0,8 L633.0,48 L640.0,48" fill="none" stroke="#2979ff" stroke-width="1.5" stroke-linejoin="round" style="fill:none;stroke:rgb(41, 121, 255);color:rgb(0, 0, 0);stroke-width:1.5px;stroke-linecap:butt;stroke-linejoin:round;opacity:1;font-family:monospace;font-size:13px;font-weight:400;text-anchor:start;dominant-baseline:auto"/>
    <text x="250" y="66" text-anchor="middle" font-size="11" fill="#388e3c" style="fill:rgb(56, 142, 60);stroke:none;color:rgb(0, 0, 0);stroke-width:1px;stroke-linecap:butt;stroke-linejoin:miter;opacity:1;font-family:monospace;font-size:11px;font-weight:400;text-anchor:middle;dominant-baseline:auto">00000000</text>
    <text x="406" y="66" text-anchor="middle" font-size="11" fill="#c62828" style="fill:rgb(198, 40, 40);stroke:none;color:rgb(0, 0, 0);stroke-width:1px;stroke-linecap:butt;stroke-linejoin:miter;opacity:1;font-family:monospace;font-size:11px;font-weight:400;text-anchor:middle;dominant-baseline:auto">00000000</text>
    <text x="562" y="66" text-anchor="middle" font-size="11" fill="#1565c0" style="fill:rgb(21, 101, 192);stroke:none;color:rgb(0, 0, 0);stroke-width:1px;stroke-linecap:butt;stroke-linejoin:miter;opacity:1;font-family:monospace;font-size:11px;font-weight:400;text-anchor:middle;dominant-baseline:auto">11111111</text>
  </g>

  <!-- ROW 4: Orange -->
  <g transform="translate(0, 386)" style="fill:rgb(0, 0, 0);stroke:none;color:rgb(0, 0, 0);stroke-width:1px;stroke-linecap:butt;stroke-linejoin:miter;opacity:1;font-family:monospace;font-size:13px;font-weight:400;text-anchor:start;dominant-baseline:auto">
    <line x1="40" y1="-8" x2="640" y2="-8" stroke="var(--color-border-tertiary)" stroke-width="0.5" stroke-dasharray="2 2" style="fill:rgb(0, 0, 0);stroke:rgba(31, 30, 29, 0.15);color:rgb(0, 0, 0);stroke-width:0.5px;stroke-dasharray:2px, 2px;stroke-linecap:butt;stroke-linejoin:miter;opacity:1;font-family:monospace;font-size:13px;font-weight:400;text-anchor:start;dominant-baseline:auto"/>
    <rect x="40" y="12" width="36" height="36" rx="4" fill="rgb(255,165,0)" stroke="#999" stroke-width="0.5" style="fill:rgb(255, 165, 0);stroke:rgb(153, 153, 153);color:rgb(0, 0, 0);stroke-width:0.5px;stroke-linecap:butt;stroke-linejoin:miter;opacity:1;font-family:monospace;font-size:13px;font-weight:400;text-anchor:start;dominant-baseline:auto"/>
    <text x="84" y="22" font-size="12" font-weight="500" fill="var(--color-text-primary)" style="fill:rgb(20, 20, 19);stroke:none;color:rgb(0, 0, 0);stroke-width:1px;stroke-linecap:butt;stroke-linejoin:miter;opacity:1;font-family:monospace;font-size:12px;font-weight:500;text-anchor:start;dominant-baseline:auto">Orange</text>
    <text x="84" y="36" font-size="11" fill="var(--color-text-secondary)" style="fill:rgb(61, 61, 58);stroke:none;color:rgb(0, 0, 0);stroke-width:1px;stroke-linecap:butt;stroke-linejoin:miter;opacity:1;font-family:monospace;font-size:11px;font-weight:400;text-anchor:start;dominant-baseline:auto">R:255 G:165 B:0</text>
    <text x="84" y="48" font-size="11" fill="var(--color-text-tertiary)" style="fill:rgb(115, 114, 108);stroke:none;color:rgb(0, 0, 0);stroke-width:1px;stroke-linecap:butt;stroke-linejoin:miter;opacity:1;font-family:monospace;font-size:11px;font-weight:400;text-anchor:start;dominant-baseline:auto">#FFA500</text>
    <rect x="172" y="4" width="156" height="48" fill="#4caf50" opacity="0.04" style="fill:rgb(76, 175, 80);stroke:none;color:rgb(0, 0, 0);stroke-width:1px;stroke-linecap:butt;stroke-linejoin:miter;opacity:0.04;font-family:monospace;font-size:13px;font-weight:400;text-anchor:start;dominant-baseline:auto"/>
    <rect x="328" y="4" width="156" height="48" fill="#e53935" opacity="0.04" style="fill:rgb(229, 57, 53);stroke:none;color:rgb(0, 0, 0);stroke-width:1px;stroke-linecap:butt;stroke-linejoin:miter;opacity:0.04;font-family:monospace;font-size:13px;font-weight:400;text-anchor:start;dominant-baseline:auto"/>
    <rect x="484" y="4" width="156" height="48" fill="#2979ff" opacity="0.04" style="fill:rgb(41, 121, 255);stroke:none;color:rgb(0, 0, 0);stroke-width:1px;stroke-linecap:butt;stroke-linejoin:miter;opacity:0.04;font-family:monospace;font-size:13px;font-weight:400;text-anchor:start;dominant-baseline:auto"/>
    <line x1="172" y1="48" x2="640" y2="48" stroke="var(--color-border-tertiary)" stroke-width="0.5" style="fill:rgb(0, 0, 0);stroke:rgba(31, 30, 29, 0.15);color:rgb(0, 0, 0);stroke-width:0.5px;stroke-linecap:butt;stroke-linejoin:miter;opacity:1;font-family:monospace;font-size:13px;font-weight:400;text-anchor:start;dominant-baseline:auto"/>
    <path d="M172.0,48 L172.0,8 L184.5,8 L184.5,48 L191.5,48 L191.5,8 L197.7,8 L197.7,48 L211.0,48 L211.0,8 L223.5,8 L223.5,48 L230.5,48 L230.5,8 L236.7,8 L236.7,48 L250.0,48 L250.0,8 L256.2,8 L256.2,48 L269.5,48 L269.5,8 L282.0,8 L282.0,48 L289.0,48 L289.0,8 L295.2,8 L295.2,48 L308.5,48 L308.5,8 L321.0,8 L321.0,48 L328.0,48" fill="none" stroke="#4caf50" stroke-width="1.5" stroke-linejoin="round" mask="url(#imagine-text-gaps-iix6rj)" style="fill:none;stroke:rgb(76, 175, 80);color:rgb(0, 0, 0);stroke-width:1.5px;stroke-linecap:butt;stroke-linejoin:round;opacity:1;font-family:monospace;font-size:13px;font-weight:400;text-anchor:start;dominant-baseline:auto"/>
    <path d="M328.0,48 L328.0,8 L340.5,8 L340.5,48 L347.5,48 L347.5,8 L360.0,8 L360.0,48 L367.0,48 L367.0,8 L379.5,8 L379.5,48 L386.5,48 L386.5,8 L399.0,8 L399.0,48 L406.0,48 L406.0,8 L418.5,8 L418.5,48 L425.5,48 L425.5,8 L438.0,8 L438.0,48 L445.0,48 L445.0,8 L457.5,8 L457.5,48 L464.5,48 L464.5,8 L477.0,8 L477.0,48 L484.0,48" fill="none" stroke="#e53935" stroke-width="1.5" stroke-linejoin="round" mask="url(#imagine-text-gaps-iix6rj)" style="fill:none;stroke:rgb(229, 57, 53);color:rgb(0, 0, 0);stroke-width:1.5px;stroke-linecap:butt;stroke-linejoin:round;opacity:1;font-family:monospace;font-size:13px;font-weight:400;text-anchor:start;dominant-baseline:auto"/>
    <path d="M484.0,48 L484.0,8 L490.2,8 L490.2,48 L503.5,48 L503.5,8 L509.7,8 L509.7,48 L523.0,48 L523.0,8 L529.2,8 L529.2,48 L542.5,48 L542.5,8 L548.7,8 L548.7,48 L562.0,48 L562.0,8 L568.2,8 L568.2,48 L581.5,48 L581.5,8 L587.7,8 L587.7,48 L601.0,48 L601.0,8 L607.2,8 L607.2,48 L620.5,48 L620.5,8 L626.7,8 L626.7,48 L640.0,48" fill="none" stroke="#2979ff" stroke-width="1.5" stroke-linejoin="round" style="fill:none;stroke:rgb(41, 121, 255);color:rgb(0, 0, 0);stroke-width:1.5px;stroke-linecap:butt;stroke-linejoin:round;opacity:1;font-family:monospace;font-size:13px;font-weight:400;text-anchor:start;dominant-baseline:auto"/>
    <text x="250" y="66" text-anchor="middle" font-size="11" fill="#388e3c" style="fill:rgb(56, 142, 60);stroke:none;color:rgb(0, 0, 0);stroke-width:1px;stroke-linecap:butt;stroke-linejoin:miter;opacity:1;font-family:monospace;font-size:11px;font-weight:400;text-anchor:middle;dominant-baseline:auto">10100101</text>
    <text x="406" y="66" text-anchor="middle" font-size="11" fill="#c62828" style="fill:rgb(198, 40, 40);stroke:none;color:rgb(0, 0, 0);stroke-width:1px;stroke-linecap:butt;stroke-linejoin:miter;opacity:1;font-family:monospace;font-size:11px;font-weight:400;text-anchor:middle;dominant-baseline:auto">11111111</text>
    <text x="562" y="66" text-anchor="middle" font-size="11" fill="#1565c0" style="fill:rgb(21, 101, 192);stroke:none;color:rgb(0, 0, 0);stroke-width:1px;stroke-linecap:butt;stroke-linejoin:miter;opacity:1;font-family:monospace;font-size:11px;font-weight:400;text-anchor:middle;dominant-baseline:auto">00000000</text>
  </g>
</svg>